<?xml version="1.0" encoding="iso-8859-1"?>
<!-- Generator: Adobe Illustrator 19.0.0, SVG Export Plug-In . SVG Version: 6.00 Build 0)  -->
<svg version="1.1" id="Layer_1" xmlns="http://www.w3.org/2000/svg" xmlns:xlink="http://www.w3.org/1999/xlink" x="0px" y="0px"
	 viewBox="0 0 511.999 511.999" style="enable-background:new 0 0 511.999 511.999;" xml:space="preserve">
<path style="fill:#211E48;" d="M152.416,284.313H22.727C10.195,284.313,0,274.119,0,261.586v-92.76
	C0,156.295,10.195,146.1,22.727,146.1h129.689c12.532,0,22.727,10.195,22.727,22.727v92.76
	C175.143,274.119,164.947,284.313,152.416,284.313z M27.63,256.683h119.883V173.73H27.63V256.683z"/>
<path style="fill:#B0DACC;" d="M156.1,175.338l-63.802,48.65c-2.791,2.128-6.66,2.128-9.451,0l-63.803-48.648
	c-5.931-4.522-2.733-13.99,4.726-13.99h127.607C158.834,161.347,162.032,170.816,156.1,175.338z"/>
<g>
	<path style="fill:#211E48;" d="M87.572,239.399c-4.708,0-9.362-1.574-13.105-4.429l-63.799-48.645
		c-7.377-5.623-10.339-15.308-7.372-24.098c2.969-8.789,11.196-14.695,20.472-14.695h127.607c9.277,0,17.504,5.905,20.471,14.694
		c2.967,8.789,0.007,18.473-7.37,24.099l-63.803,48.648C96.933,237.826,92.279,239.399,87.572,239.399z M41.597,175.162
		l45.974,35.056l45.975-35.056H41.597z"/>
	<path style="fill:#211E48;" d="M333.981,378.786c-35.77,0-85.813-9.108-121.091-52.497c-12.898-15.858-20.209-34.254-27.278-52.047
		c-7.67-19.318-14.9-37.529-28.576-51.136c-5.077-5.052-5.45-13.148-0.862-18.645c13.95-16.715,62.961-71.248,107.923-71.248
		c1.04,0,2.093,0.029,3.106,0.087c33.767,1.894,61.412,21.517,82.257,58.363c29.995-37.658,109.256-46.54,133.949-48.408
		c7.681-0.571,15.223,2.202,20.694,7.631c5.503,5.458,8.359,13.028,7.836,20.764c-3.171,46.956-14.343,83.715-34.104,112.074
		c1.742,0.188,3.966,0.316,6.793,0.316c0.003,0,0.006,0,0.008,0c7.071,0,13.378,4.417,15.77,10.995
		c2.389,6.573,0.392,14.006-4.971,18.494c-6.801,5.697-14.307,11.447-22.309,17.089c-4.109,2.897-8.402,5.804-12.762,8.641
		c-6.398,4.16-14.953,2.347-19.114-4.048c-4.16-6.396-2.347-14.953,4.048-19.114c4.074-2.65,8.082-5.362,11.909-8.06
		c0.623-0.439,1.243-0.881,1.861-1.321c-0.018-0.01-0.033-0.019-0.051-0.029c-3.302-1.786-6.003-4.185-8.022-7.126
		c-5.652-8.216-5.375-19.029,0.698-26.894c18.819-24.414,29.491-57.714,32.603-101.771c-47.93,3.794-101.976,18.034-115.662,41.518
		c-4.172,7.166-11.944,11.494-20.24,11.305c-8.377-0.227-15.909-4.969-19.707-12.377c-16.443-32.058-37.654-49.035-63.043-50.459
		c-0.513-0.029-1.031-0.041-1.545-0.041c-22.154,0-54.205,25.094-78.972,52.428c12.293,15.831,19.584,34.194,26.152,50.736
		c6.312,15.887,12.827,32.28,23.05,44.85c28.426,34.962,69.883,42.299,99.656,42.299c22.227,0,46.196-4.274,67.496-12.033
		c7.171-2.614,15.098,1.082,17.708,8.252c2.612,7.167-1.082,15.097-8.252,17.708C386.681,373.92,359.351,378.786,333.981,378.786z"
		/>
	<circle style="fill:#211E48;" cx="240.589" cy="215.211" r="15.657"/>
</g>
<g>
</g>
<g>
</g>
<g>
</g>
<g>
</g>
<g>
</g>
<g>
</g>
<g>
</g>
<g>
</g>
<g>
</g>
<g>
</g>
<g>
</g>
<g>
</g>
<g>
</g>
<g>
</g>
<g>
</g>
</svg>
